<svg width="13" height="14" viewBox="0 0 13 14" fill="none" xmlns="http://www.w3.org/2000/svg">
<g clip-path="url(#clip0_1_3455)">
<g clip-path="url(#clip1_1_3455)">
<path d="M9.55388 1.21953C9.71521 0.844925 9.5949 0.407425 9.26404 0.1668C8.93318 -0.0738249 8.482 -0.0519499 8.17302 0.216019L1.17302 6.34102C0.899583 6.58164 0.801146 6.96719 0.929661 7.30625C1.05818 7.64532 1.3863 7.875 1.74997 7.875H4.7988L2.69607 12.7805C2.53474 13.1551 2.65505 13.5926 2.98591 13.8332C3.31677 14.0738 3.76794 14.052 4.07693 13.784L11.0769 7.65899C11.3504 7.41836 11.4488 7.03282 11.3203 6.69375C11.1918 6.35469 10.8664 6.12774 10.5 6.12774H7.45115L9.55388 1.21953Z" fill="#F59E0B"/>
</g>
</g>
<defs>
<clipPath id="clip0_1_3455">
<rect width="12.25" height="14" fill="white"/>
</clipPath>
<clipPath id="clip1_1_3455">
<path d="M0 0H12.25V14H0V0Z" fill="white"/>
</clipPath>
</defs>
</svg>
